<?xml version="1.0" standalone="no"?><!DOCTYPE svg PUBLIC "-//W3C//DTD SVG 1.1//EN" "http://www.w3.org/Graphics/SVG/1.1/DTD/svg11.dtd"><svg t="1607312691687" class="icon" viewBox="0 0 1024 1024" version="1.1" xmlns="http://www.w3.org/2000/svg" p-id="1810" xmlns:xlink="http://www.w3.org/1999/xlink" width="200" height="200"><defs><style type="text/css"></style></defs><path d="M1021.707569 507.946688c0 68.831868-6.189916 137.230442-30.949581 197.025032-25.688152 61.899162-73.041011 112.161281-119.836777 158.895148a496.926471 496.926471 0 0 1-164.342274 106.466559c-59.79459 24.759665-122.684139 53.666573-191.516007 53.666573s-134.444979-22.1599-194.301469-46.981464c-61.899162-25.688152-114.142054-67.098691-160.93782-113.832558a500.392824 500.392824 0 0 1-111.418492-162.052006C23.707384 641.277483 2.290274 576.778556 2.290274 507.946688a515.620018 515.620018 0 0 1 38.872673-196.158444c25.750051-61.899162 70.007952-114.018256 116.74182-160.93782s100.338541-86.906423 162.361501-112.656475A507.077933 507.077933 0 0 1 514.815333 0.002166c68.831868 0 132.526105 18.569749 192.320696 43.63891 61.899162 25.688152 124.664912 53.91417 171.398779 100.648037s72.174423 110.490004 97.862575 172.451064c24.821564 59.856489 45.310186 122.746038 45.310186 191.206511z" fill="#FFD635" p-id="1811"></path><path d="M624.191152 957.891695c-64.870322 0-126.831383-20.921917-183.221519-44.3198-58.494708-24.264471-107.704542-63.260943-151.776744-107.395045a471.91921 471.91921 0 0 1-104.795281-152.829031c-23.397883-56.390136-43.329413-117.237012-43.329413-182.169233a486.775008 486.775008 0 0 1 36.396707-185.016595c24.264471-58.494708 66.232103-107.518844 110.118609-151.591047S382.227329 52.430757 440.660138 28.166285A469.133747 469.133747 0 0 1 534.127872 0.559259C527.752258 0.002166 521.314745 0.002166 514.815333 0.002166a507.077933 507.077933 0 0 0-194.549065 38.191783c-61.899162 25.750051-115.627634 66.108305-162.361501 112.842172s-90.991768 99.038659-116.74182 160.937821A515.620018 515.620018 0 0 0 2.290274 507.946688c0 68.831868 21.41711 133.330795 46.238674 193.187284a499.773832 499.773832 0 0 0 111.418491 162.052006c46.733867 46.733867 99.038659 88.144406 160.937821 113.832558 59.856489 24.759665 125.5315 46.981464 194.301468 46.981464s131.721416-28.845009 191.516007-53.666573a517.848388 517.848388 0 0 0 134.568778-79.540423c-11.760841 5.818521-23.769278 11.389446-36.087212 16.527076-56.761531 23.397883-115.813332 50.571615-180.993149 50.571615z" fill="#F7B523" p-id="1812"></path><path d="M433.294137 132.156877s3.652051-2.847361 10.275261-7.304101a240.168748 240.168748 0 0 1 28.659312-16.650875 235.712008 235.712008 0 0 1 44.3198-16.836572A217.513655 217.513655 0 0 1 571.762562 83.689833h14.05111c4.39484 0 9.408673 0.309496 13.927311 0.618992s9.099177 0.990387 13.555917 1.609378 8.789681 1.547479 13.060723 2.475967a168.613317 168.613317 0 0 1 24.078774 7.489798 140.139702 140.139702 0 0 1 20.488623 9.903866 123.798324 123.798324 0 0 1 27.483227 21.293312 74.278994 74.278994 0 0 1 6.623211 7.737395 27.607026 27.607026 0 0 1 2.16647 3.033059s-5.19953 0.928487-13.617815 1.547479c-4.147244 0.309496-9.099177 0.433294-14.670102 0.680891s-11.637042 0-18.136454 0-13.432118-0.618992-20.67432-1.114185-14.732001-1.361782-22.469396-2.352168l-11.698941-1.609379-12.008438-1.918874c-4.085345-0.680891-7.737395-1.423681-12.379832-2.042672l-6.189916-1.237983a55.214052 55.214052 0 0 0-5.818522-0.74279 438.988855 438.988855 0 0 0-91.54886 0l-32.125665 2.723563-9.222975 0.680891z" fill="#FFEF57" p-id="1813"></path><path d="M498.412056 379.877322l-3.528253-0.495193a85.173247 85.173247 0 0 1-9.161076-2.22837 110.675701 110.675701 0 0 1-27.854622-13.432118 128.316962 128.316962 0 0 1-15.784287-12.379832l-16.527076-14.855799c-11.327547-10.399059-23.335984-21.602807-35.096825-33.116052-23.583581-22.964589-46.300573-46.857665-62.518153-65.736909-8.232589-9.284874-14.7939-17.393664-19.374438-23.088388s-7.056504-9.099177-7.056504-9.099177a14.917698 14.917698 0 0 1 19.312538-21.788504s3.652051 2.042672 9.903866 5.88042 15.041496 9.346773 25.254858 16.403278c20.736219 13.803513 47.22906 33.425547 72.855314 54.037968 12.875026 10.275261 25.440555 20.798118 37.139497 30.949581l16.774673 14.608202a137.106643 137.106643 0 0 1 14.051109 14.113009 110.861399 110.861399 0 0 1 16.712774 26.059547 85.173247 85.173247 0 0 1 3.342555 8.789681c0.618992 2.166471 0.928487 3.466353 0.928487 3.466353A18.569749 18.569749 0 0 1 503.673484 379.567827a18.941144 18.941144 0 0 1-5.261428 0.309495zM639.85164 357.965019s0-1.237983 0.680891-3.218756a73.288608 73.288608 0 0 1 2.723563-8.232589 90.434675 90.434675 0 0 1 14.360606-24.016875 105.228575 105.228575 0 0 1 12.379832-12.751227l15.041496-13.060723c10.522858-8.913479 21.788505-18.569749 33.363649-27.483228 23.088387-18.569749 47.043363-35.715816 65.798809-47.786153 9.284874-6.189916 17.331765-10.956152 22.902689-14.360605s9.037278-5.075731 9.037278-5.075732a14.979597 14.979597 0 0 1 19.312539 21.850405s-2.166471 3.094958-6.189917 8.294487-9.780068 12.379832-17.084168 20.983816c-14.236807 17.207967-34.415934 38.810774-55.709246 59.485095-10.522858 10.399059-21.231412 20.426723-31.382875 29.835396l-14.7939 13.308319a103.990592 103.990592 0 0 1-14.174908 10.832354 92.848743 92.848743 0 0 1-25.316757 11.389445 71.307834 71.307834 0 0 1-8.480185 1.609379h-3.280656a19.003043 19.003043 0 0 1-19.622034-18.569749 20.921917 20.921917 0 0 1 0.433294-3.033059zM571.762562 315.254597a26.430942 26.430942 0 0 1-3.156857-5.013832 42.524724 42.524724 0 0 1-4.580538-13.122622 114.513449 114.513449 0 0 1-0.557092-18.569748c0-6.932706 0.371395-14.236807 0.74279-21.602808 0.866588-14.670101 2.290269-29.340203 3.961546-40.358253S571.762562 198.079484 571.762562 198.079484a7.551698 7.551698 0 0 1 14.670102 0s1.733177 7.366 3.342554 18.569749 3.094958 25.688152 3.899648 40.358253c0.433294 7.366 0.680891 14.670101 0.804689 21.602808a114.513449 114.513449 0 0 1-0.557093 18.569748 44.196002 44.196002 0 0 1-4.271042 13.30832 26.430942 26.430942 0 0 1-3.156857 5.013832 9.718168 9.718168 0 0 1-13.679715 1.114185 9.470572 9.470572 0 0 1-1.052286-1.361782z" fill="#F7B523" p-id="1814"></path><path d="M383.960505 737.840175s0.618992-1.609378 1.856975-4.642437a157.347669 157.347669 0 0 1 7.551698-14.484404 163.599485 163.599485 0 0 1 37.758489-42.524724 195.601351 195.601351 0 0 1 31.382875-20.736219 231.440966 231.440966 0 0 1 38.129883-16.527077 285.417035 285.417035 0 0 1 42.710422-10.708554 321.875641 321.875641 0 0 1 45.186388-3.961547h11.07995c3.961546 0 7.984992 0 11.637043 0.557093 7.551698 0.495193 15.041496 1.237983 22.469395 2.352168a280.774598 280.774598 0 0 1 42.772321 9.532471 238.187975 238.187975 0 0 1 38.563178 15.227193 197.272629 197.272629 0 0 1 32.125665 19.683934 146.453417 146.453417 0 0 1 38.996472 42.586623 110.304306 110.304306 0 0 1 7.242202 14.7939c1.361782 3.590151 2.042672 5.509025 2.042672 5.509025a16.093782 16.093782 0 0 1-28.102219 14.979597l-0.990387-1.361781-2.475966-3.466353c-1.609378-2.22837-4.209143-5.385227-7.613597-9.222975a129.369248 129.369248 0 0 0-13.617816-12.379833 165.518359 165.518359 0 0 0-20.488623-13.617815 224.693957 224.693957 0 0 0-26.988034-12.379833c-5.075731-1.856975-10.213362-3.71395-15.660488-5.261428s-11.018051-3.280656-16.774673-4.704337a325.960986 325.960986 0 0 0-36.025312-6.189916c-6.189916-0.680891-12.379832-1.299882-18.569749-1.671277l-9.161075-0.371395h-9.780068a261.523959 261.523959 0 0 0-37.63469 2.599765 258.614698 258.614698 0 0 0-35.715817 6.994605 245.368277 245.368277 0 0 0-32.001866 10.894252 196.653637 196.653637 0 0 0-26.554741 13.555917 171.398779 171.398779 0 0 0-20.302925 14.546303 162.918594 162.918594 0 0 0-13.803513 12.689328c-3.652051 4.271042-5.88042 6.685109-7.799294 9.346773l-2.97116 4.085345a16.27948 16.27948 0 0 1-28.226018-15.722387z" fill="#943436" p-id="1815"></path><path d="M662.75433 801.843908a13.927311 13.927311 0 0 1-2.042672 0.495194 32.558959 32.558959 0 0 0-4.394841 1.42368c-3.775849 1.176084-8.913479 2.537866-14.917698 3.837748s-12.936925 2.352168-20.550521 3.156858c-3.961546 0.433294-7.366 0.680891-12.379833 0.990386s-9.470572 0.495193-14.360605 0.618992A415.281476 415.281476 0 0 1 540.812981 810.881186c-7.304101-0.680891-13.432118-1.671277-17.765059-2.352168l-6.994605-1.609378h-0.680891a24.078774 24.078774 0 0 1-7.613597-43.329414 133.702189 133.702189 0 0 1 24.759665-11.82274 244.563588 244.563588 0 0 1 55.709245-13.060723c5.075731-0.680891 10.399059-1.052286 15.289093-1.42368a136.178156 136.178156 0 0 1 16.155682-0.371395 101.947919 101.947919 0 0 1 30.392488 6.189916 75.021784 75.021784 0 0 1 20.426723 10.956151 27.916522 27.916522 0 0 1 5.261429 4.394841c0.866588 0.990387 1.299882 1.609378 1.299883 1.609378a27.730824 27.730824 0 0 1-14.298707 42.400926z" fill="#F7B523" p-id="1816"></path><path d="M442.764709 440.352803a71.369734 71.369734 0 0 1-4.332941 27.35943 71.493532 71.493532 0 0 1-16.650875 22.036102 68.584271 68.584271 0 0 1-22.778891 14.793899 70.317448 70.317448 0 0 1-26.61664 7.4279 73.226708 73.226708 0 0 1-49.519329-22.283699 75.702675 75.702675 0 0 1-21.850404-49.519329 72.174423 72.174423 0 0 1 5.385227-27.235631 71.431633 71.431633 0 0 1 16.21758-22.345598 67.036792 67.036792 0 0 1 49.51933-20.983815 68.955666 68.955666 0 0 1 26.678538 6.189916A71.245935 71.245935 0 0 1 423.204574 389.966886a71.555431 71.555431 0 0 1 13.617816 23.954975 69.327061 69.327061 0 0 1 5.942319 26.430942zM883.115346 440.352803a72.545818 72.545818 0 0 1-4.332941 27.35943 71.493532 71.493532 0 0 1-16.650875 22.036102 90.991768 90.991768 0 0 1-49.519329 22.221799 70.565044 70.565044 0 0 1-26.926136-6.189917 68.831868 68.831868 0 0 1-22.036101-16.093782 70.069851 70.069851 0 0 1-15.474791-22.531294 64.99412 64.99412 0 0 1-0.990386-54.037969 71.431633 71.431633 0 0 1 16.21758-22.345597 67.036792 67.036792 0 0 1 49.51933-20.983816 69.017565 69.017565 0 0 1 26.740438 6.189916 71.61733 71.61733 0 0 1 23.521681 13.989211 71.555431 71.555431 0 0 1 13.617816 23.954975 68.089078 68.089078 0 0 1 6.313714 26.430942z" fill="#943436" p-id="1817"></path></svg>